<svg xmlns="http://www.w3.org/2000/svg" xmlns:xlink="http://www.w3.org/1999/xlink" width="40" zoomAndPan="magnify" viewBox="0 0 30 30.000001" height="40" preserveAspectRatio="xMidYMid meet" version="1.0"><defs><clipPath id="d230a19797"><path d="M 0.484375 0 L 29.515625 0 L 29.515625 29.03125 L 0.484375 29.03125 Z M 0.484375 0 " clip-rule="nonzero"/></clipPath><clipPath id="b6d88a1ec0"><path d="M 9.960938 1.882812 L 20.125 1.882812 L 20.125 27.285156 L 9.960938 27.285156 Z M 9.960938 1.882812 " clip-rule="nonzero"/></clipPath><clipPath id="c9ae6da880"><path d="M 9.960938 10 L 20.125 10 L 20.125 11 L 9.960938 11 Z M 9.960938 10 " clip-rule="nonzero"/></clipPath></defs><g clip-path="url(#d230a19797)"><path fill="#ffffff" d="M 0.484375 0 L 29.515625 0 L 29.515625 29.03125 L 0.484375 29.03125 Z M 0.484375 0 " fill-opacity="1" fill-rule="nonzero"/></g><g clip-path="url(#b6d88a1ec0)"><path fill="#000000" d="M 9.980469 2.457031 L 9.980469 17.289062 C 9.980469 17.710938 9.980469 18.132812 9.980469 18.554688 C 9.980469 19.6875 10.191406 20.777344 10.613281 21.824219 C 11.816406 24.75 14.65625 26.78125 17.773438 27.191406 C 18.222656 27.25 18.671875 27.28125 19.125 27.28125 C 19.453125 27.285156 20.105469 27.152344 20.105469 26.71875 C 20.105469 26.285156 19.4375 26.15625 19.125 26.15625 C 18.976562 26.15625 18.707031 26.199219 18.574219 26.136719 C 18.699219 26.191406 18.734375 26.152344 18.628906 26.140625 C 18.585938 26.136719 18.539062 26.132812 18.496094 26.128906 C 18.382812 26.117188 18.273438 26.101562 18.160156 26.085938 C 17.984375 26.058594 17.808594 26.027344 17.632812 25.988281 C 17.589844 25.976562 17.546875 25.964844 17.503906 25.960938 C 17.527344 25.957031 17.707031 26.015625 17.546875 25.96875 C 17.449219 25.941406 17.355469 25.917969 17.257812 25.890625 C 17.089844 25.839844 16.925781 25.785156 16.761719 25.722656 C 16.667969 25.6875 16.578125 25.652344 16.488281 25.617188 C 16.445312 25.597656 16.40625 25.582031 16.367188 25.566406 C 16.46875 25.609375 16.441406 25.601562 16.359375 25.558594 C 16.035156 25.410156 15.722656 25.238281 15.421875 25.050781 C 15.277344 24.957031 15.136719 24.859375 14.996094 24.761719 C 15.117188 24.847656 14.929688 24.710938 14.894531 24.679688 C 14.8125 24.613281 14.726562 24.546875 14.648438 24.476562 C 14.378906 24.25 14.125 24.003906 13.890625 23.742188 C 13.777344 23.617188 13.664062 23.484375 13.558594 23.351562 C 13.464844 23.238281 13.378906 23.121094 13.296875 22.996094 C 13.09375 22.695312 12.90625 22.382812 12.746094 22.054688 C 12.191406 20.945312 11.945312 19.84375 11.941406 18.605469 C 11.941406 18.246094 11.941406 17.890625 11.941406 17.535156 L 11.941406 3.671875 C 11.941406 3.285156 11.960938 2.894531 11.941406 2.507812 C 11.941406 2.492188 11.941406 2.472656 11.941406 2.457031 C 11.941406 2.027344 11.289062 1.882812 10.960938 1.894531 C 10.640625 1.902344 9.980469 2.015625 9.980469 2.457031 Z M 9.980469 2.457031 " fill-opacity="1" fill-rule="nonzero"/></g><g clip-path="url(#c9ae6da880)"><path fill="#000000" d="M 10.960938 10.847656 L 19.125 10.847656 C 19.320312 10.847656 20.085938 10.847656 20.105469 10.542969 C 20.121094 10.253906 19.25 10.238281 19.125 10.238281 L 10.960938 10.238281 C 10.765625 10.238281 10 10.238281 9.980469 10.542969 C 9.964844 10.832031 10.835938 10.847656 10.960938 10.847656 Z M 10.960938 10.847656 " fill-opacity="1" fill-rule="nonzero"/></g></svg>