<svg xmlns="http://www.w3.org/2000/svg" xmlns:xlink="http://www.w3.org/1999/xlink" width="160" zoomAndPan="magnify" viewBox="0 0 120 37.5" height="50" preserveAspectRatio="xMidYMid meet" version="1.0"><defs><g/></defs><g fill="#000000" fill-opacity="1"><g transform="translate(6.057129, 25.164474)"><g><path d="M 9.515625 -10.359375 L 9.515625 0 L 5.03125 0 L 5.03125 -10.359375 L 0.46875 -10.359375 L 0.46875 -13.921875 L 14.0625 -13.921875 L 14.0625 -10.359375 Z M 9.515625 -10.359375 "/></g></g></g><g fill="#000000" fill-opacity="1"><g transform="translate(20.660531, 25.164474)"><g><path d="M 7.703125 -10.953125 C 8.015625 -10.953125 8.289062 -10.910156 8.53125 -10.828125 C 8.78125 -10.753906 8.90625 -10.710938 8.90625 -10.703125 L 8.90625 -7.328125 L 7.609375 -7.328125 C 6.773438 -7.328125 6.171875 -7.109375 5.796875 -6.671875 C 5.421875 -6.242188 5.234375 -5.601562 5.234375 -4.75 L 5.234375 0 L 1.21875 0 L 1.21875 -10.6875 L 4.515625 -10.6875 L 4.78125 -9.0625 C 5.019531 -9.6875 5.398438 -10.15625 5.921875 -10.46875 C 6.453125 -10.789062 7.046875 -10.953125 7.703125 -10.953125 Z M 7.703125 -10.953125 "/></g></g></g><g fill="#000000" fill-opacity="1"><g transform="translate(29.641018, 25.164474)"><g><path d="M 8.96875 0 L 8.703125 -1.625 C 8.285156 -1.039062 7.734375 -0.582031 7.046875 -0.25 C 6.367188 0.0820312 5.648438 0.25 4.890625 0.25 C 3.648438 0.25 2.71875 -0.09375 2.09375 -0.78125 C 1.476562 -1.476562 1.171875 -2.472656 1.171875 -3.765625 L 1.171875 -10.6875 L 5.203125 -10.6875 L 5.203125 -4.25 C 5.203125 -3.789062 5.316406 -3.421875 5.546875 -3.140625 C 5.785156 -2.867188 6.125 -2.734375 6.5625 -2.734375 C 7.050781 -2.734375 7.453125 -2.894531 7.765625 -3.21875 C 8.078125 -3.539062 8.234375 -3.9375 8.234375 -4.40625 L 8.234375 -10.6875 L 12.265625 -10.6875 L 12.265625 0 Z M 8.96875 0 "/></g></g></g><g fill="#000000" fill-opacity="1"><g transform="translate(43.131975, 25.164474)"><g><path d="M 6.296875 -10.921875 C 7.722656 -10.921875 8.929688 -10.640625 9.921875 -10.078125 C 10.910156 -9.523438 11.40625 -8.660156 11.40625 -7.484375 L 7.671875 -7.484375 C 7.671875 -7.878906 7.492188 -8.15625 7.140625 -8.3125 C 6.898438 -8.445312 6.597656 -8.515625 6.234375 -8.515625 C 5.265625 -8.515625 4.78125 -8.285156 4.78125 -7.828125 C 4.78125 -7.578125 4.945312 -7.394531 5.28125 -7.28125 C 5.613281 -7.175781 6.164062 -7.0625 6.9375 -6.9375 C 7.882812 -6.800781 8.675781 -6.640625 9.3125 -6.453125 C 9.945312 -6.273438 10.5 -5.953125 10.96875 -5.484375 C 11.4375 -5.023438 11.671875 -4.378906 11.671875 -3.546875 C 11.671875 -2.179688 11.160156 -1.207031 10.140625 -0.625 C 9.128906 -0.0390625 7.800781 0.25 6.15625 0.25 C 5.207031 0.25 4.3125 0.117188 3.46875 -0.140625 C 2.632812 -0.410156 1.953125 -0.820312 1.421875 -1.375 C 0.898438 -1.925781 0.640625 -2.628906 0.640625 -3.484375 L 4.390625 -3.484375 L 4.390625 -3.40625 C 4.398438 -2.945312 4.59375 -2.625 4.96875 -2.4375 C 5.34375 -2.257812 5.738281 -2.171875 6.15625 -2.171875 C 7.269531 -2.171875 7.828125 -2.429688 7.828125 -2.953125 C 7.828125 -3.222656 7.648438 -3.414062 7.296875 -3.53125 C 6.953125 -3.65625 6.378906 -3.785156 5.578125 -3.921875 C 4.617188 -4.085938 3.832031 -4.265625 3.21875 -4.453125 C 2.613281 -4.640625 2.082031 -4.957031 1.625 -5.40625 C 1.164062 -5.863281 0.9375 -6.492188 0.9375 -7.296875 C 0.9375 -8.609375 1.429688 -9.539062 2.421875 -10.09375 C 3.410156 -10.644531 4.703125 -10.921875 6.296875 -10.921875 Z M 6.296875 -10.921875 "/></g></g></g><g fill="#000000" fill-opacity="1"><g transform="translate(55.490261, 25.164474)"><g><path d="M 8.34375 -10.6875 L 8.34375 -7.953125 L 6.0625 -7.953125 L 6.0625 -3.890625 C 6.0625 -3.398438 6.144531 -3.039062 6.3125 -2.8125 C 6.476562 -2.59375 6.773438 -2.484375 7.203125 -2.484375 L 8.34375 -2.484375 L 8.34375 -0.125 C 8.007812 -0.0078125 7.585938 0.078125 7.078125 0.140625 C 6.566406 0.210938 6.125 0.25 5.75 0.25 C 4.5625 0.25 3.644531 0.0351562 3 -0.390625 C 2.363281 -0.828125 2.046875 -1.566406 2.046875 -2.609375 L 2.046875 -7.953125 L 0.546875 -7.953125 L 0.546875 -10.6875 L 2.203125 -10.6875 L 3.078125 -13.921875 L 6.0625 -13.921875 L 6.0625 -10.6875 Z M 8.34375 -10.6875 "/></g></g></g><g fill="#000000" fill-opacity="1"><g transform="translate(64.470749, 25.164474)"><g><path d="M 7.703125 -10.953125 C 8.015625 -10.953125 8.289062 -10.910156 8.53125 -10.828125 C 8.78125 -10.753906 8.90625 -10.710938 8.90625 -10.703125 L 8.90625 -7.328125 L 7.609375 -7.328125 C 6.773438 -7.328125 6.171875 -7.109375 5.796875 -6.671875 C 5.421875 -6.242188 5.234375 -5.601562 5.234375 -4.75 L 5.234375 0 L 1.21875 0 L 1.21875 -10.6875 L 4.515625 -10.6875 L 4.78125 -9.0625 C 5.019531 -9.6875 5.398438 -10.15625 5.921875 -10.46875 C 6.453125 -10.789062 7.046875 -10.953125 7.703125 -10.953125 Z M 7.703125 -10.953125 "/></g></g></g><g fill="#000000" fill-opacity="1"><g transform="translate(73.451236, 25.164474)"><g><path d="M 6.734375 -10.921875 C 8.609375 -10.921875 10.082031 -10.445312 11.15625 -9.5 C 12.226562 -8.550781 12.765625 -7.164062 12.765625 -5.34375 C 12.765625 -3.519531 12.226562 -2.128906 11.15625 -1.171875 C 10.082031 -0.222656 8.609375 0.25 6.734375 0.25 C 4.859375 0.25 3.390625 -0.222656 2.328125 -1.171875 C 1.265625 -2.117188 0.734375 -3.507812 0.734375 -5.34375 C 0.734375 -7.175781 1.265625 -8.5625 2.328125 -9.5 C 3.390625 -10.445312 4.859375 -10.921875 6.734375 -10.921875 Z M 6.734375 -8.1875 C 5.410156 -8.1875 4.75 -7.425781 4.75 -5.90625 L 4.75 -4.75 C 4.75 -3.238281 5.410156 -2.484375 6.734375 -2.484375 C 8.066406 -2.484375 8.734375 -3.238281 8.734375 -4.75 L 8.734375 -5.90625 C 8.734375 -7.425781 8.066406 -8.1875 6.734375 -8.1875 Z M 6.734375 -8.1875 "/></g></g></g><g fill="#000000" fill-opacity="1"><g transform="translate(86.942193, 25.164474)"><g><path d="M 8.578125 -10.921875 C 9.816406 -10.921875 10.742188 -10.578125 11.359375 -9.890625 C 11.984375 -9.203125 12.296875 -8.210938 12.296875 -6.921875 L 12.296875 0 L 8.28125 0 L 8.28125 -6.4375 C 8.28125 -6.894531 8.160156 -7.257812 7.921875 -7.53125 C 7.679688 -7.8125 7.347656 -7.953125 6.921875 -7.953125 C 6.421875 -7.953125 6.015625 -7.789062 5.703125 -7.46875 C 5.390625 -7.144531 5.234375 -6.742188 5.234375 -6.265625 L 5.234375 0 L 1.21875 0 L 1.21875 -10.6875 L 4.515625 -10.6875 L 4.78125 -9.0625 C 5.195312 -9.632812 5.742188 -10.085938 6.421875 -10.421875 C 7.109375 -10.753906 7.828125 -10.921875 8.578125 -10.921875 Z M 8.578125 -10.921875 "/></g></g></g><g fill="#000000" fill-opacity="1"><g transform="translate(100.43315, 25.164474)"><g><path d="M 13.234375 -12.6875 C 13.234375 -11.863281 13.023438 -11.226562 12.609375 -10.78125 C 12.203125 -10.332031 11.585938 -10.003906 10.765625 -9.796875 C 11.148438 -9.492188 11.453125 -9.144531 11.671875 -8.75 C 11.898438 -8.351562 12.015625 -7.929688 12.015625 -7.484375 C 12.015625 -6.347656 11.585938 -5.488281 10.734375 -4.90625 C 9.878906 -4.332031 8.8125 -4.046875 7.53125 -4.046875 L 5.984375 -4.046875 C 5.140625 -4.046875 4.71875 -3.847656 4.71875 -3.453125 C 4.71875 -3.265625 4.8125 -3.113281 5 -3 C 5.1875 -2.882812 5.515625 -2.828125 5.984375 -2.828125 L 9.625 -2.828125 C 10.8125 -2.828125 11.707031 -2.515625 12.3125 -1.890625 C 12.925781 -1.273438 13.234375 -0.445312 13.234375 0.59375 C 13.234375 1.351562 13.03125 2.007812 12.625 2.5625 C 12.21875 3.125 11.671875 3.546875 10.984375 3.828125 C 10.296875 4.109375 9.546875 4.25 8.734375 4.25 L 2.796875 4.25 C 2.304688 4.25 1.851562 4.132812 1.4375 3.90625 C 1.03125 3.675781 0.703125 3.363281 0.453125 2.96875 C 0.210938 2.570312 0.09375 2.128906 0.09375 1.640625 C 0.09375 1.109375 0.253906 0.628906 0.578125 0.203125 C 0.910156 -0.210938 1.316406 -0.53125 1.796875 -0.75 C 1.472656 -0.976562 1.21875 -1.253906 1.03125 -1.578125 C 0.84375 -1.898438 0.75 -2.25 0.75 -2.625 C 0.75 -3.15625 0.941406 -3.628906 1.328125 -4.046875 C 1.722656 -4.472656 2.210938 -4.765625 2.796875 -4.921875 C 2.265625 -5.253906 1.84375 -5.640625 1.53125 -6.078125 C 1.226562 -6.515625 1.078125 -6.976562 1.078125 -7.46875 C 1.078125 -8.707031 1.578125 -9.59375 2.578125 -10.125 C 3.585938 -10.65625 4.921875 -10.921875 6.578125 -10.921875 C 7.304688 -10.921875 7.894531 -10.882812 8.34375 -10.8125 C 9 -11.226562 9.425781 -11.609375 9.625 -11.953125 C 9.820312 -12.296875 9.921875 -12.539062 9.921875 -12.6875 Z M 6.53125 -8.828125 C 6.09375 -8.828125 5.726562 -8.710938 5.4375 -8.484375 C 5.15625 -8.253906 5.015625 -7.921875 5.015625 -7.484375 C 5.015625 -7.035156 5.144531 -6.703125 5.40625 -6.484375 C 5.675781 -6.265625 6.050781 -6.15625 6.53125 -6.15625 C 7.019531 -6.15625 7.398438 -6.265625 7.671875 -6.484375 C 7.953125 -6.703125 8.09375 -7.035156 8.09375 -7.484375 C 8.09375 -7.929688 7.953125 -8.265625 7.671875 -8.484375 C 7.398438 -8.710938 7.019531 -8.828125 6.53125 -8.828125 Z M 4.984375 0 C 4.671875 0 4.414062 0.0820312 4.21875 0.25 C 4.019531 0.414062 3.921875 0.65625 3.921875 0.96875 C 3.921875 1.28125 4.019531 1.53125 4.21875 1.71875 C 4.425781 1.90625 4.679688 2 4.984375 2 L 8.140625 2 C 8.429688 2 8.679688 1.90625 8.890625 1.71875 C 9.097656 1.539062 9.203125 1.296875 9.203125 0.984375 C 9.203125 0.679688 9.097656 0.441406 8.890625 0.265625 C 8.691406 0.0859375 8.441406 0 8.140625 0 Z M 4.984375 0 "/></g></g></g></svg>